<mxfile host="app.diagrams.net" agent="Mozilla/5.0 (X11; Linux x86_64; rv:139.0) Gecko/20100101 Firefox/139.0" version="28.0.7">
  <diagram name="Page-1" id="98NNi3en-TZQ4uQMV90l">
    <mxGraphModel dx="1421" dy="1354" grid="1" gridSize="10" guides="1" tooltips="1" connect="1" arrows="1" fold="1" page="1" pageScale="1" pageWidth="827" pageHeight="1169" math="0" shadow="0">
      <root>
        <mxCell id="0" />
        <mxCell id="1" parent="0" />
        <mxCell id="hgMQAKNkKGoYwcbPnEij-1" value="" style="group" parent="1" vertex="1" connectable="0">
          <mxGeometry x="205" y="340" width="238" height="359" as="geometry" />
        </mxCell>
        <mxCell id="hgMQAKNkKGoYwcbPnEij-44" value="" style="verticalLabelPosition=bottom;verticalAlign=top;html=1;shape=mxgraph.basic.orthogonal_triangle;flipV=0;flipH=1;fillColor=#1ba1e2;fontColor=#ffffff;strokeColor=none;" parent="hgMQAKNkKGoYwcbPnEij-1" vertex="1">
          <mxGeometry x="12.18" y="121" width="156" height="109" as="geometry" />
        </mxCell>
        <mxCell id="hgMQAKNkKGoYwcbPnEij-39" value="" style="verticalLabelPosition=bottom;verticalAlign=top;html=1;shape=mxgraph.basic.orthogonal_triangle;rotation=145;flipH=0;flipV=1;fillColor=#f0a30a;fontColor=#000000;strokeColor=none;" parent="hgMQAKNkKGoYwcbPnEij-1" vertex="1">
          <mxGeometry x="-31.82" y="84.27" width="188" height="100" as="geometry" />
        </mxCell>
        <mxCell id="hgMQAKNkKGoYwcbPnEij-7" value="" style="verticalLabelPosition=bottom;verticalAlign=top;html=1;shape=mxgraph.basic.arc;startAngle=0.0745390096410402;endAngle=0.25321481407813756;" parent="hgMQAKNkKGoYwcbPnEij-1" vertex="1">
          <mxGeometry x="-35" y="179" width="100" height="100" as="geometry" />
        </mxCell>
        <mxCell id="hgMQAKNkKGoYwcbPnEij-2" value="" style="endArrow=classic;html=1;rounded=0;strokeColor=light-dark(#000000,#FF3333);" parent="hgMQAKNkKGoYwcbPnEij-1" edge="1">
          <mxGeometry width="50" height="50" relative="1" as="geometry">
            <mxPoint x="15" y="230" as="sourcePoint" />
            <mxPoint x="15" y="30" as="targetPoint" />
          </mxGeometry>
        </mxCell>
        <mxCell id="hgMQAKNkKGoYwcbPnEij-3" value="" style="endArrow=classic;html=1;rounded=0;fillColor=#a20025;strokeColor=light-dark(#000000,#3333FF);" parent="hgMQAKNkKGoYwcbPnEij-1" edge="1">
          <mxGeometry width="50" height="50" relative="1" as="geometry">
            <mxPoint x="15" y="230" as="sourcePoint" />
            <mxPoint x="215" y="230" as="targetPoint" />
          </mxGeometry>
        </mxCell>
        <mxCell id="hgMQAKNkKGoYwcbPnEij-4" value="&lt;font style=&quot;color: light-dark(rgb(0, 0, 0), rgb(51, 51, 255));&quot; face=&quot;Times New Roman&quot;&gt;x&lt;/font&gt;" style="text;html=1;align=center;verticalAlign=middle;resizable=0;points=[];autosize=1;strokeColor=none;fillColor=none;" parent="hgMQAKNkKGoYwcbPnEij-1" vertex="1">
          <mxGeometry x="208" y="214" width="30" height="30" as="geometry" />
        </mxCell>
        <mxCell id="hgMQAKNkKGoYwcbPnEij-5" value="&lt;font style=&quot;color: light-dark(rgb(0, 0, 0), rgb(255, 51, 51));&quot; face=&quot;Times New Roman&quot;&gt;y&lt;/font&gt;" style="text;html=1;align=center;verticalAlign=middle;resizable=0;points=[];autosize=1;strokeColor=none;fillColor=none;" parent="hgMQAKNkKGoYwcbPnEij-1" vertex="1">
          <mxGeometry width="30" height="30" as="geometry" />
        </mxCell>
        <mxCell id="hgMQAKNkKGoYwcbPnEij-15" value="" style="endArrow=none;html=1;rounded=0;entryX=0;entryY=0.5;entryDx=0;entryDy=0;strokeColor=light-dark(#000000,#FF9933);" parent="hgMQAKNkKGoYwcbPnEij-1" source="hgMQAKNkKGoYwcbPnEij-6" target="hgMQAKNkKGoYwcbPnEij-11" edge="1">
          <mxGeometry width="50" height="50" relative="1" as="geometry">
            <mxPoint x="50" y="159" as="sourcePoint" />
            <mxPoint x="100" y="109" as="targetPoint" />
          </mxGeometry>
        </mxCell>
        <mxCell id="hgMQAKNkKGoYwcbPnEij-16" value="" style="endArrow=none;html=1;rounded=0;exitX=0.867;exitY=0.483;exitDx=0;exitDy=0;exitPerimeter=0;entryX=0.317;entryY=0.617;entryDx=0;entryDy=0;entryPerimeter=0;strokeColor=light-dark(#000000,#FF9933);" parent="hgMQAKNkKGoYwcbPnEij-1" source="hgMQAKNkKGoYwcbPnEij-6" target="hgMQAKNkKGoYwcbPnEij-13" edge="1">
          <mxGeometry width="50" height="50" relative="1" as="geometry">
            <mxPoint x="50" y="159" as="sourcePoint" />
            <mxPoint x="100" y="109" as="targetPoint" />
          </mxGeometry>
        </mxCell>
        <mxCell id="hgMQAKNkKGoYwcbPnEij-20" value="" style="endArrow=none;html=1;rounded=0;exitX=0;exitY=0.5;exitDx=0;exitDy=0;dashed=1;" parent="hgMQAKNkKGoYwcbPnEij-1" source="hgMQAKNkKGoYwcbPnEij-14" target="hgMQAKNkKGoYwcbPnEij-10" edge="1">
          <mxGeometry width="50" height="50" relative="1" as="geometry">
            <mxPoint x="120" y="129" as="sourcePoint" />
            <mxPoint x="170" y="79" as="targetPoint" />
          </mxGeometry>
        </mxCell>
        <mxCell id="hgMQAKNkKGoYwcbPnEij-22" value="" style="rounded=0;whiteSpace=wrap;html=1;dashed=1;" parent="hgMQAKNkKGoYwcbPnEij-1" vertex="1">
          <mxGeometry x="110" y="112" width="10" height="10" as="geometry" />
        </mxCell>
        <mxCell id="hgMQAKNkKGoYwcbPnEij-27" value="" style="whiteSpace=wrap;html=1;aspect=fixed;dashed=1;" parent="hgMQAKNkKGoYwcbPnEij-1" vertex="1">
          <mxGeometry x="100" y="219" width="10" height="10" as="geometry" />
        </mxCell>
        <mxCell id="hgMQAKNkKGoYwcbPnEij-19" value="" style="endArrow=none;html=1;rounded=0;entryX=0;entryY=0.5;entryDx=0;entryDy=0;dashed=1;exitX=1;exitY=1;exitDx=0;exitDy=0;" parent="hgMQAKNkKGoYwcbPnEij-1" source="hgMQAKNkKGoYwcbPnEij-27" target="hgMQAKNkKGoYwcbPnEij-14" edge="1">
          <mxGeometry width="50" height="50" relative="1" as="geometry">
            <mxPoint x="110" y="220" as="sourcePoint" />
            <mxPoint x="180" y="140" as="targetPoint" />
          </mxGeometry>
        </mxCell>
        <mxCell id="hgMQAKNkKGoYwcbPnEij-28" value="" style="whiteSpace=wrap;html=1;aspect=fixed;dashed=1;" parent="hgMQAKNkKGoYwcbPnEij-1" vertex="1">
          <mxGeometry x="158" y="219" width="10" height="10" as="geometry" />
        </mxCell>
        <mxCell id="hgMQAKNkKGoYwcbPnEij-6" value="" style="shape=waypoint;sketch=0;size=6;pointerEvents=1;points=[];fillColor=none;resizable=0;rotatable=0;perimeter=centerPerimeter;snapToPoint=1;" parent="hgMQAKNkKGoYwcbPnEij-1" vertex="1">
          <mxGeometry x="5" y="219" width="20" height="20" as="geometry" />
        </mxCell>
        <mxCell id="hgMQAKNkKGoYwcbPnEij-12" value="" style="group" parent="hgMQAKNkKGoYwcbPnEij-1" vertex="1" connectable="0">
          <mxGeometry x="100" y="29" width="50" height="20" as="geometry" />
        </mxCell>
        <mxCell id="hgMQAKNkKGoYwcbPnEij-14" value="&lt;div align=&quot;left&quot;&gt;&lt;font face=&quot;Times New Roman&quot;&gt;&amp;nbsp;D&lt;/font&gt;&lt;/div&gt;" style="text;html=1;align=left;verticalAlign=middle;whiteSpace=wrap;rounded=0;" parent="hgMQAKNkKGoYwcbPnEij-12" vertex="1">
          <mxGeometry x="10" width="40" height="20" as="geometry" />
        </mxCell>
        <mxCell id="hgMQAKNkKGoYwcbPnEij-13" value="&#xa;" style="shape=waypoint;sketch=0;size=6;pointerEvents=1;points=[];fillColor=none;resizable=0;rotatable=0;perimeter=centerPerimeter;snapToPoint=1;dashed=1;dashPattern=8 8;" parent="hgMQAKNkKGoYwcbPnEij-12" vertex="1">
          <mxGeometry width="20" height="20" as="geometry" />
        </mxCell>
        <mxCell id="hgMQAKNkKGoYwcbPnEij-9" value="" style="group" parent="hgMQAKNkKGoYwcbPnEij-1" vertex="1" connectable="0">
          <mxGeometry x="158" y="112" width="50" height="20" as="geometry" />
        </mxCell>
        <mxCell id="hgMQAKNkKGoYwcbPnEij-10" value="&#xa;" style="shape=waypoint;sketch=0;size=6;pointerEvents=1;points=[];fillColor=none;resizable=0;rotatable=0;perimeter=centerPerimeter;snapToPoint=1;" parent="hgMQAKNkKGoYwcbPnEij-9" vertex="1">
          <mxGeometry width="20" height="20" as="geometry" />
        </mxCell>
        <mxCell id="hgMQAKNkKGoYwcbPnEij-11" value="&lt;div align=&quot;left&quot;&gt;&lt;font face=&quot;Times New Roman&quot;&gt;&amp;nbsp;C&lt;/font&gt;&lt;/div&gt;" style="text;html=1;align=left;verticalAlign=middle;whiteSpace=wrap;rounded=0;" parent="hgMQAKNkKGoYwcbPnEij-9" vertex="1">
          <mxGeometry x="10" width="40" height="20" as="geometry" />
        </mxCell>
        <mxCell id="hgMQAKNkKGoYwcbPnEij-25" value="" style="rounded=0;whiteSpace=wrap;html=1;direction=south;rotation=325;dashed=1;" parent="hgMQAKNkKGoYwcbPnEij-9" vertex="1">
          <mxGeometry x="1" y="6" width="7" height="7" as="geometry" />
        </mxCell>
        <mxCell id="hgMQAKNkKGoYwcbPnEij-30" value="&lt;font style=&quot;font-size: 10px; color: light-dark(rgb(0, 0, 0), rgb(255, 153, 51));&quot;&gt;1&lt;/font&gt;" style="text;html=1;align=center;verticalAlign=middle;resizable=0;points=[];autosize=1;strokeColor=none;fillColor=none;" parent="hgMQAKNkKGoYwcbPnEij-1" vertex="1">
          <mxGeometry x="40" y="107" width="30" height="30" as="geometry" />
        </mxCell>
        <mxCell id="hgMQAKNkKGoYwcbPnEij-31" value="&lt;div align=&quot;left&quot;&gt;&lt;font face=&quot;Times New Roman&quot;&gt;&amp;nbsp;A&lt;/font&gt;&lt;/div&gt;" style="text;html=1;align=left;verticalAlign=middle;whiteSpace=wrap;rounded=0;" parent="hgMQAKNkKGoYwcbPnEij-1" vertex="1">
          <mxGeometry y="229" width="40" height="20" as="geometry" />
        </mxCell>
        <mxCell id="hgMQAKNkKGoYwcbPnEij-32" value="&lt;div align=&quot;left&quot;&gt;&lt;font face=&quot;Times New Roman&quot;&gt;&amp;nbsp;F&lt;/font&gt;&lt;/div&gt;" style="text;html=1;align=left;verticalAlign=middle;whiteSpace=wrap;rounded=0;" parent="hgMQAKNkKGoYwcbPnEij-1" vertex="1">
          <mxGeometry x="99" y="229" width="40" height="20" as="geometry" />
        </mxCell>
        <mxCell id="hgMQAKNkKGoYwcbPnEij-33" value="&lt;div align=&quot;left&quot;&gt;&lt;font face=&quot;Times New Roman&quot;&gt;&amp;nbsp;B&lt;/font&gt;&lt;/div&gt;" style="text;html=1;align=left;verticalAlign=middle;whiteSpace=wrap;rounded=0;" parent="hgMQAKNkKGoYwcbPnEij-1" vertex="1">
          <mxGeometry x="158" y="229" width="40" height="20" as="geometry" />
        </mxCell>
        <mxCell id="hgMQAKNkKGoYwcbPnEij-34" value="&lt;div align=&quot;left&quot;&gt;&lt;font face=&quot;Times New Roman&quot;&gt;&amp;nbsp;E&lt;/font&gt;&lt;/div&gt;" style="text;html=1;align=left;verticalAlign=middle;whiteSpace=wrap;rounded=0;" parent="hgMQAKNkKGoYwcbPnEij-1" vertex="1">
          <mxGeometry x="95" y="112" width="40" height="20" as="geometry" />
        </mxCell>
        <mxCell id="hgMQAKNkKGoYwcbPnEij-37" value="&lt;font face=&quot;Times New Roman&quot;&gt;sin&lt;span lang=&quot;en&quot; class=&quot;BxUVEf ILfuVd&quot;&gt;&lt;span class=&quot;hgKElc&quot;&gt;&amp;nbsp;α&lt;/span&gt;&lt;/span&gt;&lt;/font&gt;" style="text;html=1;align=center;verticalAlign=middle;resizable=0;points=[];autosize=1;strokeColor=none;fillColor=none;rotation=55;" parent="hgMQAKNkKGoYwcbPnEij-1" vertex="1">
          <mxGeometry x="120" y="60" width="50" height="30" as="geometry" />
        </mxCell>
        <mxCell id="hgMQAKNkKGoYwcbPnEij-38" value="&lt;font face=&quot;Times New Roman&quot;&gt;&lt;span lang=&quot;en&quot; class=&quot;BxUVEf ILfuVd&quot;&gt;&lt;span class=&quot;hgKElc&quot;&gt;cos&amp;nbsp;&lt;/span&gt;&lt;/span&gt;&lt;/font&gt;&lt;font face=&quot;Times New Roman&quot;&gt;&lt;span lang=&quot;en&quot; class=&quot;BxUVEf ILfuVd&quot;&gt;&lt;span class=&quot;hgKElc&quot;&gt;α&lt;/span&gt;&lt;/span&gt;&lt;/font&gt;" style="text;html=1;align=center;verticalAlign=middle;resizable=0;points=[];autosize=1;strokeColor=none;fillColor=none;rotation=323;" parent="hgMQAKNkKGoYwcbPnEij-1" vertex="1">
          <mxGeometry x="50" y="160" width="50" height="30" as="geometry" />
        </mxCell>
        <mxCell id="hgMQAKNkKGoYwcbPnEij-41" value="&lt;font face=&quot;Times New Roman&quot;&gt;&lt;span lang=&quot;en&quot; class=&quot;BxUVEf ILfuVd&quot;&gt;&lt;span class=&quot;hgKElc&quot;&gt;α&lt;/span&gt;&lt;/span&gt;&lt;/font&gt;" style="text;html=1;align=center;verticalAlign=middle;resizable=0;points=[];autosize=1;strokeColor=none;fillColor=none;" parent="hgMQAKNkKGoYwcbPnEij-1" vertex="1">
          <mxGeometry x="25" y="184.26999999999998" width="30" height="30" as="geometry" />
        </mxCell>
        <mxCell id="hgMQAKNkKGoYwcbPnEij-43" value="&lt;span data-huuid=&quot;11080961971377987387&quot;&gt;&lt;span&gt;&lt;font face=&quot;Times New Roman&quot;&gt;β&lt;/font&gt;&lt;/span&gt;&lt;/span&gt;" style="text;html=1;align=center;verticalAlign=middle;resizable=0;points=[];autosize=1;strokeColor=none;fillColor=none;" parent="hgMQAKNkKGoYwcbPnEij-1" vertex="1">
          <mxGeometry x="35" y="198.99999999999997" width="30" height="30" as="geometry" />
        </mxCell>
        <mxCell id="hA9lWFGxY8dei8BSWIib-4" value="" style="verticalLabelPosition=bottom;verticalAlign=top;html=1;shape=mxgraph.basic.arc;startAngle=0.6547586750633085;endAngle=0.7419686955660539;" parent="hgMQAKNkKGoYwcbPnEij-1" vertex="1">
          <mxGeometry x="134" y="84.27" width="70" height="72" as="geometry" />
        </mxCell>
        <mxCell id="hA9lWFGxY8dei8BSWIib-5" value="&lt;span data-huuid=&quot;11080961971377987387&quot;&gt;&lt;span&gt;&lt;font face=&quot;Times New Roman&quot;&gt;β&lt;/font&gt;&lt;/span&gt;&lt;/span&gt;" style="text;html=1;align=center;verticalAlign=middle;resizable=0;points=[];autosize=1;strokeColor=none;fillColor=none;fontColor=light-dark(#000000,#62A0EA);" parent="hgMQAKNkKGoYwcbPnEij-1" vertex="1">
          <mxGeometry x="128" y="114" width="30" height="30" as="geometry" />
        </mxCell>
        <mxCell id="hA9lWFGxY8dei8BSWIib-7" value="" style="verticalLabelPosition=bottom;verticalAlign=top;html=1;shape=mxgraph.basic.arc;startAngle=0.4037267924846636;endAngle=0.5;aspect=fixed;" parent="hgMQAKNkKGoYwcbPnEij-1" vertex="1">
          <mxGeometry x="77" y="5.64" width="66.73" height="66.73" as="geometry" />
        </mxCell>
        <mxCell id="hA9lWFGxY8dei8BSWIib-8" value="&lt;span data-huuid=&quot;11080961971377987387&quot;&gt;&lt;span&gt;&lt;font face=&quot;Times New Roman&quot;&gt;β&lt;/font&gt;&lt;/span&gt;&lt;/span&gt;" style="text;html=1;align=center;verticalAlign=middle;resizable=0;points=[];autosize=1;strokeColor=none;fillColor=none;fontColor=light-dark(#000000,#62A0EA);" parent="hgMQAKNkKGoYwcbPnEij-1" vertex="1">
          <mxGeometry x="100" y="42.370000000000005" width="30" height="30" as="geometry" />
        </mxCell>
        <mxCell id="hgMQAKNkKGoYwcbPnEij-18" value="" style="endArrow=none;html=1;rounded=0;entryX=0.457;entryY=0.671;entryDx=0;entryDy=0;entryPerimeter=0;dashed=1;" parent="1" target="hgMQAKNkKGoYwcbPnEij-10" edge="1">
          <mxGeometry width="50" height="50" relative="1" as="geometry">
            <mxPoint x="378" y="560" as="sourcePoint" />
            <mxPoint x="390" y="480" as="targetPoint" />
          </mxGeometry>
        </mxCell>
        <mxCell id="hgMQAKNkKGoYwcbPnEij-21" value="" style="endArrow=none;html=1;rounded=0;entryX=0;entryY=0.5;entryDx=0;entryDy=0;dashed=1;" parent="1" target="hgMQAKNkKGoYwcbPnEij-11" edge="1">
          <mxGeometry width="50" height="50" relative="1" as="geometry">
            <mxPoint x="320" y="463" as="sourcePoint" />
            <mxPoint x="380" y="420" as="targetPoint" />
          </mxGeometry>
        </mxCell>
        <mxCell id="PxSWsM7b8-aeUEH5RUzK-1" value="" style="verticalLabelPosition=bottom;verticalAlign=top;html=1;shape=mxgraph.basic.arc;startAngle=0;endAngle=0.2484085036175459;aspect=fixed;dashed=1;dashPattern=8 8;fillColor=#008a00;fontColor=#ffffff;strokeColor=#005700;" vertex="1" parent="1">
          <mxGeometry x="14" y="359" width="423.5" height="423.5" as="geometry" />
        </mxCell>
      </root>
    </mxGraphModel>
  </diagram>
</mxfile>
